HIERARCHY
ROOT Hips
{
    OFFSET 14.164297103881836 95.16803359985352 -18.44227409362793
    CHANNELS 6 Xposition Yposition Zposition Zrotation Xrotation Yrotation
    JOINT RightUpLeg
    {
        OFFSET -14.164297103881836 0.0 0.0
        CHANNELS 3 Zrotation Xrotation Yrotation
        JOINT RightLeg
        {
            OFFSET 0.0 -49.06235122680664 0.0
            CHANNELS 3 Zrotation Xrotation Yrotation
            JOINT RightFoot
            {
                OFFSET 0.0 -46.105682373046875 0.0
                CHANNELS 3 Zrotation Xrotation Yrotation
                End Site
                {
                    OFFSET 0.0 0.0 18.44227409362793
                }
            }
        }
    }
    JOINT LeftUpLeg
    {
        OFFSET 14.164297103881836 0.0 0.0
        CHANNELS 3 Zrotation Xrotation Yrotation
        JOINT LeftLeg
        {
            OFFSET 0.0 -49.06235122680664 0.0
            CHANNELS 3 Zrotation Xrotation Yrotation
            JOINT LeftFoot
            {
                OFFSET 0.0 -46.105682373046875 0.0
                CHANNELS 3 Zrotation Xrotation Yrotation
                End Site
                {
                    OFFSET 0.0 0.0 18.44227409362793
                }
            }
        }
    }
    JOINT Spine
    {
        OFFSET 0.0 25.679351806640625 0.0
        CHANNELS 3 Zrotation Xrotation Yrotation
        JOINT Spine3
        {
            OFFSET 0.0 26.143936157226562 0.0
            CHANNELS 3 Zrotation Xrotation Yrotation
            JOINT Neck
            {
                OFFSET 0.0 11.135071754455566 0.0
                CHANNELS 3 Zrotation Xrotation Yrotation
                End Site
                {
                    OFFSET 0.0 4.454028606414795 0.0
                }
            }
            JOINT LeftArm
            {
                OFFSET 15.196566581726074 0.0 0.0
                CHANNELS 3 Zrotation Xrotation Yrotation
                JOINT LeftForeArm
                {
                    OFFSET 29.750762939453125 0.0 0.0
                    CHANNELS 3 Zrotation Xrotation Yrotation
                    JOINT LeftHand
                    {
                        OFFSET 24.974950790405273 0.0 0.0
                        CHANNELS 3 Zrotation Xrotation Yrotation
                        End Site
                        {
                            OFFSET 9.989980697631836 0.0 0.0
                        }
                    }
                }
            }
            JOINT RightArm
            {
                OFFSET -15.196566581726074 0.0 0.0
                CHANNELS 3 Zrotation Xrotation Yrotation
                JOINT RightForeArm
                {
                    OFFSET -29.750762939453125 0.0 0.0
                    CHANNELS 3 Zrotation Xrotation Yrotation
                    JOINT RightHand
                    {
                        OFFSET -24.974950790405273 0.0 0.0
                        CHANNELS 3 Zrotation Xrotation Yrotation
                        End Site
                        {
                            OFFSET -9.989980697631836 0.0 0.0
                        }
                    }
                }
            }
        }
    }
}
MOTION
Frames: 4
Frame Time: 0.03333333333333333
-0.00019707258616108447 95.28255462646484 -0.0008313554571941495 -11.913520858394685 -11.397508485914638 -17.857737908795144 8.747753470928943 20.297237539806996 -3.1116136746865335 -7.560525232330249 11.665091565710608 -0.15806829425908067 -7.951386703658794e-16 3.0811623476677826e-15 2.186631343506168e-15 6.178896865560803 24.335150760289288 -2.624864679622398 -2.7140747638737976 3.5694911413815045 -0.1915726920057652 0.0 0.0 1.242404172446686e-15 7.45787338505147 27.649195532706933 -3.553158793571608 4.118155046317054e-08 6.164777696285298e-07 -2.2101490882167534 3.324912862033764 -5.218918232795568 -175.29470173656722 110.98463480148476 -41.123353159381246 -173.95024141837453 3.0640322650603852e-06 -7.700825639096512e-07 31.229717144446823 6.361109362927032e-15 -6.361109362927032e-15 -6.361109362927032e-15 -116.77858520034658 -29.98940278778986 173.70298529620624 -1.7152261066709208e-06 -6.334330796893491e-08 -28.07380787320335 -4.969616689786744e-16 0.0 0.0
-0.0002202043979195878 95.28253936767578 -0.0008562225266359746 -11.560694753321215 -11.931353776090857 -17.87066849108748 8.08262603567408 20.95286323296601 -3.0354020050684167 -6.718079832823721 11.567493188672767 -0.23029624733129964 9.483001812217137e-34 -9.93923337957349e-17 1.0933156717530838e-15 5.279422162838029 24.75351369320251 -2.368769944578908 -2.079639882872626 3.6574607888430566 -0.194659447943323 3.975693351829395e-16 -1.5902773407317582e-15 -2.5345045117912397e-15 7.0192986445089405 27.82484553363123 -3.4579311109160487 2.985657705629616e-07 1.7942016512345698e-07 -1.9229530777987145 3.365797716543958 -4.916007599023285 -174.95549985002398 110.67418191746006 -36.33603005582455 -174.93726881677858 -4.990884102695467e-07 1.6533790640381855e-06 28.751647875394642 7.95138670365879e-15 4.413906298050159e-31 6.361109362927032e-15 -116.07097541039639 -30.22176592734121 173.40666725306153 1.6677510404421919e-06 -1.0370231032140268e-06 -28.490335318586958 5.168401357378215e-15 0.0 0.0
-0.0002194005937781185 95.2825698852539 -0.0008710569236427546 -10.468382004628852 -12.529177985330774 -17.583596270832956 6.651966727399307 21.33052148942746 -2.859231855355894 -5.820092288565937 11.687154896203056 -0.29428440952150997 0.0 0.0 -3.3793393490549868e-15 3.8441913838120083 24.907177184226242 -2.119079902642244 -1.5476893227114972 3.9763015278008105 -0.20901732986674593 -3.975693351829396e-16 4.969616689786746e-17 -1.987846675914698e-15 5.572797079170535 28.185716900778623 -3.196782663510924 2.306865695092435e-07 -8.236311252100904e-08 -1.435145568042039 3.8660095169020248 -4.889429726881039 -175.22347957428258 110.85701478605137 -28.68308682159712 -176.2281846708264 6.118930003402487e-06 3.5403179651118495e-06 25.83782011529691 -3.1805546814635168e-15 3.1805546814635168e-15 6.3611093629270335e-15 -115.19084037840346 -31.177998969382035 173.05558692290955 4.328790504835764e-06 1.065381214466659e-06 -28.934101548899957 -6.4605016967227685e-15 -1.5902773407317584e-15 -8.965747167914385e-32
-0.0001974177866941318 95.28267669677734 -0.0008651870302855968 -9.379619517812552 -12.779313488118436 -17.134008636141523 5.496411050257865 21.25297307537981 -2.7119467796793555 -5.346904556191613 11.37984092069373 -0.3121246901226972 3.975693351829396e-16 4.969616689786744e-17 -2.882377680076312e-15 2.724448084111559 24.7538147023156 -1.9646314929888842 -0.8862641534151495 4.338125220176483 -0.25539999764097704 5.963540027744094e-16 -1.5902773407317584e-15 -1.5157330903849571e-15 4.415284906871265 27.867875397930728 -2.98645374777548 -1.455420493453411e-07 8.819946329562484e-09 -0.6955678460169038 3.7326600988606957 -4.658155933789258 -175.99224278951482 111.94168289062006 -21.764480664428696 -177.6086675328202 1.0515548585613933e-06 1.2561900961624914e-06 24.648816059133132 -6.3611093629270335e-15 -3.1805546814635168e-15 -1.7655625192200634e-31 -114.88172173602092 -32.50411762986774 172.80131835878095 -1.966402636269413e-06 -4.610075424662103e-06 -29.53833524547941 3.578124016646457e-15 0.0 0.0
